<?xml version="1.0" encoding="utf-8"?>
<!-- Generator: Adobe Illustrator 26.0.3, SVG Export Plug-In . SVG Version: 6.00 Build 0)  -->
<svg version="1.1" id="图层_1" xmlns="http://www.w3.org/2000/svg" xmlns:xlink="http://www.w3.org/1999/xlink" x="0px" y="0px" viewBox="0 0 55 55" style="enable-background:new 0 0 55 55;"
  xml:space="preserve">
  <style type="text/css">
    .st0 {
      fill: url(#SVGID_1_);
    }

    .st1 {
      fill: url(#SVGID_00000101099826741990295710000005335827143894081186_);
    }

    .st2 {
      fill: #009FE8;
    }
  </style>
  <g>
    <linearGradient id="SVGID_1_" gradientUnits="userSpaceOnUse" x1="0" y1="44.1278" x2="41.4595" y2="44.1278">
      <stop offset="0" style="stop-color:#009FE8" />
      <stop offset="1" style="stop-color:#00538D" />
    </linearGradient>
    <path class="st0" d="M35.7,33.3H9.6c-1.6,0-3,1-3.5,2.3c0,0.1-0.1,0.2-0.1,0.2c-3.3,9.7-6,17.6-6,17.6c0,0.1,0,0.2,0,0.3
		C0,54.5,0.6,55,1.2,55h33.4c1.2,0,2.2-0.7,2.6-1.7c0-0.1,0.1-0.2,0.1-0.3l4.1-12L35.7,33.3z" />

    <linearGradient id="SVGID_00000137113678661194101390000018148831327490584970_" gradientUnits="userSpaceOnUse" x1="13.5847" y1="10.8722" x2="55" y2="10.8722">
      <stop offset="0" style="stop-color:#00538D" />
      <stop offset="1" style="stop-color:#009FE8" />
    </linearGradient>
    <path style="fill:url(#SVGID_00000137113678661194101390000018148831327490584970_);" d="M53.8,0H20.3c-1,0-1.9,0.5-2.4,1.4
		c-0.1,0.1-0.2,0.5-0.3,0.7c-0.8,2.4-2.3,6.7-4.1,11.9l6.3,7.9h25.5c1.6,0,3-1,3.5-2.4c0-0.1,0.1-0.1,0.1-0.2l6-17.5c0,0,0,0,0-0.1
		C55,1.4,55,1.3,55,1.2C55,0.5,54.4,0,53.8,0z" />
    <path class="st2" d="M42.9,31L18.5,3l0,0c0,0-0.4-0.5-0.4-1.2c0-0.7,0.5-1.4,1.1-1.7l0,0c-0.5,0.2-1,0.6-1.3,1.1
		C17.9,1.5,17.6,2,17.6,2l-6,17.6c-0.1,0.4-0.1,0.7-0.1,1.1c0,1,0.3,1.9,0.9,2.6L37.1,51c0.2,0.3,0.4,0.7,0.4,1.2
		c0,0.3-0.2,0.9-0.2,0.9s0.1-0.2,0.1-0.4c0-0.1,0.3-0.9,0.3-0.9l5.8-16.8c0.1-0.4,0.2-0.9,0.2-1.3C43.8,32.6,43.4,31.7,42.9,31z" />
  </g>
</svg>
