<?xml version="1.0" encoding="utf-8"?>
<!-- Generator: Adobe Illustrator 26.2.1, SVG Export Plug-In . SVG Version: 6.00 Build 0)  -->
<svg version="1.1" id="图层_1" xmlns="http://www.w3.org/2000/svg" xmlns:xlink="http://www.w3.org/1999/xlink" x="0px" y="0px" viewBox="0 0 212 32" style="enable-background:new 0 0 212 32;"
  xml:space="preserve">
  <style type="text/css">
    .st0 {
      fill: url(#SVGID_1_);
    }

    .st1 {
      fill: url(#SVGID_00000183956156671720608980000002728276002116205707_);
    }

    .st2 {
      fill: #009FE8;
    }
  </style>
  <g>

    <linearGradient id="SVGID_1_" gradientUnits="userSpaceOnUse" x1="0" y1="-35.7333" x2="24.0973" y2="-35.7333" gradientTransform="matrix(1 0 0 -1 0 -10)">
      <stop offset="0" style="stop-color:#009FE8" />
      <stop offset="1" style="stop-color:#00538D" />
    </linearGradient>
    <path class="st0" d="M20.8,19.5H5.6c-0.8,0-1.6,0.5-2.1,1.3c0,0,0,0,0,0.3C1.6,26.4,0,31.2,0,31.2s0,0,0,0.3C0,31.7,0.3,32,0.8,32
		h19.5c0.8,0,1.3-0.5,1.6-1.1c0,0,0,0,0-0.3l2.1-6.9L20.8,19.5z" />

    <linearGradient id="SVGID_00000009554665323686849270000018026901492967714717_" gradientUnits="userSpaceOnUse" x1="7.8957" y1="-16.2667" x2="31.9675" y2="-16.2667"
      gradientTransform="matrix(1 0 0 -1 0 -10)">
      <stop offset="0" style="stop-color:#00538D" />
      <stop offset="1" style="stop-color:#009FE8" />
    </linearGradient>
    <path style="fill:url(#SVGID_00000009554665323686849270000018026901492967714717_);" d="M31.2,0H11.7c-0.5,0-1.1,0.3-1.3,0.8
		l-0.3,0.3C9.9,2.7,8.8,5.1,8,8l3.7,4.5h14.9c0.8,0,1.6-0.5,2.1-1.3l0,0L32,1.1l0,0c0,0,0,0,0-0.3C32,0.3,31.7,0,31.2,0z" />
    <path class="st2" d="M25.1,18.1L10.7,1.9l0,0c0,0-0.3-0.3-0.3-0.8s0.3-0.8,0.5-1.1l0,0c0,0.3-0.3,0.5-0.5,0.8l-0.3,0.3L6.7,11.5
		c0,0.3,0,0.5,0,0.5c0,0.5,0.3,1.1,0.5,1.6l14.4,16c0.3,0.3,0.3,0.5,0.3,0.8s0,0.5,0,0.5v-0.3l0.3-0.5l3.5-9.9c0-0.3,0-0.5,0-0.8
		C25.3,18.9,25.3,18.4,25.1,18.1z" />
  </g>
  <g>
    <path d="M58.5,7.7l-0.1,2.6c-2.4-0.1-4.9-0.2-7.5-0.2c0,2.3,0,5.3,0,8.9c0,4,0.1,8.2,0.2,12.5h-3.4c0.1-4.2,0.2-8.3,0.2-12.5
		c0-3.6,0-6.5-0.1-8.9c-1.8,0-4.3,0.1-7.6,0.2l0.1-2.6H58.5z" fill="currentColor" />
    <path d="M80.8,31.5h-2.6c0-0.2-2-3.1-6-8.8c-4.2-5.9-6.6-9.7-7.2-11.2h-0.2c0.2,2.9,0.3,5.5,0.3,7.6c0,4.1,0.1,8.2,0.3,12.4h-3.1
		c0.2-4,0.3-8.1,0.3-12.5c0-4.3-0.1-8.1-0.3-11.3h3.5c0,0.3,1.8,3.1,5.5,8.4c3.9,5.5,6.1,9.1,6.6,10.7h0.2c-0.2-3-0.3-5.5-0.3-7.6
		c0-4.5-0.1-8.4-0.3-11.5h3.1c-0.2,3.2-0.3,7-0.3,11.3C80.4,23.4,80.5,27.5,80.8,31.5z" fill="currentColor" />
    <path d="M102.9,7.7l-0.1,2.6c-2.4-0.1-4.9-0.2-7.5-0.2c0,2.3,0,5.3,0,8.9c0,4,0.1,8.2,0.2,12.5h-3.4c0.1-4.2,0.2-8.3,0.2-12.5
		c0-3.6,0-6.5-0.1-8.9c-1.8,0-4.3,0.1-7.6,0.2l0.1-2.6H102.9z" fill="currentColor" />
    <path d="M134.3,31.5h-3.9c0-0.8-0.8-3.4-2.3-7.7h-10.6c-1.5,4.3-2.3,6.8-2.3,7.7h-3.7c0-0.5,1.6-4.4,4.7-11.7
		c3.2-7.4,4.7-11.4,4.7-12.1h4.2c0,0.7,1.5,4.7,4.5,12S134.3,30.8,134.3,31.5z M127.3,21.4c-2.9-7.2-4.3-11-4.3-11.4h-0.2
		c0,0.4-1.5,4.2-4.5,11.4H127.3z" fill="currentColor" />
    <path d="M152.7,31.5l-2.7,0.1c-0.1-0.5-0.1-1.1-0.1-1.7h-0.2c-1.3,1.4-3.2,2.1-5.7,2.1c-2.3,0-4.2-0.8-5.5-2.5s-2.1-3.7-2.1-6.1
		c0-2.7,0.8-5,2.3-7s3.7-2.9,6.4-2.9c2,0,3.4,0.4,4.2,1.2h0.1c0-3-0.1-6-0.3-8.9l3.5-0.1c-0.2,3.1-0.3,7.2-0.3,12.2
		C152.4,22.9,152.5,27.5,152.7,31.5z M149.8,27.9c0-3.8-0.1-7.5-0.3-11c-1-0.8-2.2-1.2-3.7-1.2c-2.1,0-3.6,0.7-4.6,2.1
		c-1,1.4-1.5,3.1-1.5,5.2c0,1.9,0.5,3.4,1.5,4.7c1,1.3,2.3,1.9,4,1.9C147.3,29.5,148.8,29,149.8,27.9z" fill="currentColor" />
    <path d="M180.6,20.9c0-2-0.3-3.2-1-3.9c-0.7-0.6-1.8-0.9-3.3-0.9c-1.3,0-2.7,0.6-4,1.9c0,1.5-0.1,2.9-0.1,4.4c0,2,0,5.1,0.1,9.1
		h-3.3c0.3-3.5,0.4-7,0.4-10.6c0-2-0.3-3.2-1-3.9c-0.7-0.6-1.8-0.9-3.3-0.9c-1.5,0-3,0.6-4.3,1.9c0,3.9,0,8.4,0.1,13.5h-3.3
		c0.2-4.2,0.3-7.2,0.3-9c0-2.8-0.3-5.6-0.8-8.3l3.2-0.5l0.3,2.2h0.2c1.6-1.6,3.4-2.4,5.3-2.4c2.9,0,4.8,0.8,5.6,2.4h0.2
		c1.8-1.6,3.7-2.4,5.5-2.4c2.1,0,3.6,0.5,4.7,1.4c1.1,0.9,1.6,2.5,1.6,4.8c0,0.2,0,0.7,0,1.4c0,0.7,0,1.1,0,1.4c0,2,0,5.1,0.1,9.1
		h-3.3C180.5,28.3,180.6,24.8,180.6,20.9z" fill="currentColor" />
    <path d="M191.6,31.5h-3.3c0.2-2.4,0.3-5.2,0.3-8.4c0-3.5-0.2-6.5-0.6-8.9l3.7-0.5c-0.1,2.6-0.2,5.7-0.2,9.4
		C191.4,26.1,191.5,28.9,191.6,31.5z M192.4,8.6c0,0.6-0.2,1.2-0.6,1.6s-1,0.7-1.7,0.7c-0.6,0-1.1-0.2-1.5-0.6s-0.5-0.9-0.5-1.4
		c0-0.6,0.2-1.1,0.6-1.6s1-0.7,1.7-0.7c0.6,0,1.1,0.2,1.4,0.6C192.2,7.6,192.4,8.1,192.4,8.6z" fill="currentColor" />
    <path d="M212,31.5h-3.3c0.3-3.2,0.4-6.7,0.4-10.5c0-1.9-0.4-3.2-1.1-3.9c-0.8-0.7-1.9-1-3.3-1c-1.7,0-3.3,0.6-4.8,1.9
		c0,4.2,0,8.7,0.1,13.5h-3.3c0.2-4.2,0.3-7.2,0.3-9c0-2.9-0.3-5.6-0.8-8.3l3.2-0.5l0.3,2.2h0.1c1.8-1.6,3.7-2.5,5.8-2.5
		c2,0,3.6,0.4,4.7,1.3c1.1,0.9,1.7,2.5,1.7,4.8c0,0.2,0,0.7,0,1.4c0,0.7,0,1.1,0,1.4C211.9,24.4,212,27.5,212,31.5z" fill="currentColor" />
  </g>
</svg>
